<svg width="513" height="183" viewBox="0 0 513 183" fill="none" xmlns="http://www.w3.org/2000/svg">
<path d="M22.772 21.9211L17.7733 5.48029L27.7707 5.48029L22.772 21.9211Z" fill="#977272"/>
<path d="M49.8379 69.6719C49.8379 71.9727 49.541 74.0013 48.9473 75.7578C48.3783 77.5143 47.5618 79.0358 46.498 80.3223C45.459 81.6087 44.222 82.6849 42.7871 83.5508C41.3522 84.4167 39.7812 85.1094 38.0742 85.6289C36.3919 86.1484 34.5983 86.5195 32.6934 86.7422C30.8132 86.9648 28.8958 87.0762 26.9414 87.0762C24.3685 87.0762 21.9935 86.8783 19.8164 86.4824C17.6393 86.1113 15.5859 85.5176 13.6562 84.7012C11.7513 83.86 9.9082 82.7839 8.12695 81.4727C6.37044 80.1615 4.61393 78.5658 2.85742 76.6855L10.4277 69.0039C11.1204 70.7109 12.0729 72.2943 13.2852 73.7539C14.4974 75.1888 15.821 76.4258 17.2559 77.4648C18.7155 78.5039 20.2246 79.3203 21.7832 79.9141C23.3418 80.5078 24.8138 80.8047 26.1992 80.8047C27.832 80.8047 29.3659 80.6934 30.8008 80.4707C32.2357 80.2233 33.485 79.8275 34.5488 79.2832C35.6126 78.7389 36.4414 78.0215 37.0352 77.1309C37.6536 76.2155 37.9629 75.0775 37.9629 73.7168C37.9629 72.6777 37.7279 71.7871 37.2578 71.0449C36.7878 70.3027 36.1693 69.6719 35.4023 69.1523C34.6602 68.6081 33.8066 68.1504 32.8418 67.7793C31.877 67.4082 30.8874 67.099 29.873 66.8516C28.8835 66.5794 27.9062 66.3444 26.9414 66.1465C25.9766 65.9238 25.123 65.7012 24.3809 65.4785C22.9212 65.0579 21.3997 64.6126 19.8164 64.1426C18.2331 63.6478 16.6745 63.0911 15.1406 62.4727C13.6068 61.8542 12.1471 61.1491 10.7617 60.3574C9.40104 59.541 8.20117 58.5885 7.16211 57.5C6.12305 56.3867 5.29427 55.1126 4.67578 53.6777C4.05729 52.2181 3.74805 50.5482 3.74805 48.668C3.74805 46.4167 4.02018 44.4251 4.56445 42.6934C5.13346 40.9368 5.92513 39.4154 6.93945 38.1289C7.95378 36.8424 9.15365 35.7663 10.5391 34.9004C11.9245 34.0098 13.446 33.3047 15.1035 32.7852C16.7611 32.2409 18.5176 31.8574 20.373 31.6348C22.2533 31.3874 24.1706 31.2637 26.125 31.2637C28.7969 31.2637 31.2214 31.5111 33.3984 32.0059C35.6003 32.5007 37.6289 33.2057 39.4844 34.1211C41.3398 35.0365 43.0345 36.1374 44.5684 37.4238C46.127 38.6855 47.5866 40.0957 48.9473 41.6543L41.377 49.3359C40.7832 47.5547 39.9544 45.9466 38.8906 44.5117C37.8516 43.0768 36.6888 41.8522 35.4023 40.8379C34.1159 39.7988 32.7676 39.0072 31.3574 38.4629C29.9473 37.8939 28.5866 37.6094 27.2754 37.6094C25.5684 37.6094 23.9974 37.7331 22.5625 37.9805C21.1276 38.2031 19.8906 38.5866 18.8516 39.1309C17.8372 39.6504 17.0456 40.3678 16.4766 41.2832C15.9076 42.1738 15.623 43.2871 15.623 44.623C15.623 45.6868 15.8333 46.5898 16.2539 47.332C16.6745 48.0742 17.2311 48.7051 17.9238 49.2246C18.6413 49.7441 19.4453 50.1771 20.3359 50.5234C21.2266 50.8451 22.1419 51.1296 23.082 51.377C24.0469 51.6243 24.987 51.847 25.9023 52.0449C26.8424 52.2181 27.696 52.416 28.4629 52.6387C29.9473 53.0592 31.5059 53.5046 33.1387 53.9746C34.7715 54.4447 36.3796 55.0013 37.9629 55.6445C39.5462 56.263 41.0553 56.9805 42.4902 57.7969C43.9251 58.6133 45.1868 59.5905 46.2754 60.7285C47.3639 61.8418 48.2298 63.1406 48.873 64.625C49.5163 66.0846 49.8379 67.7669 49.8379 69.6719ZM100.938 86H88.3945V80.8789C86.9102 82.9076 85.1165 84.4167 83.0137 85.4062C80.9355 86.3711 78.6471 86.8535 76.1484 86.8535C72.8828 86.8535 69.9635 86.2721 67.3906 85.1094C64.8177 83.9466 62.6406 82.3633 60.8594 80.3594C59.0781 78.3307 57.7174 75.9557 56.7773 73.2344C55.8372 70.513 55.3672 67.5938 55.3672 64.4766C55.3672 61.3594 55.8372 58.4401 56.7773 55.7188C57.7174 52.9974 59.0781 50.6348 60.8594 48.6309C62.6406 46.6022 64.8177 45.0065 67.3906 43.8438C69.9635 42.681 72.8828 42.0996 76.1484 42.0996C77.806 42.0996 79.377 42.347 80.8613 42.8418C82.3704 43.3366 83.7435 44.0417 84.9805 44.957C86.2422 45.8477 87.3431 46.9362 88.2832 48.2227C89.248 49.4844 90.0026 50.8945 90.5469 52.4531L96.1133 43.1387H100.938V86ZM88.3203 64.4766C88.3203 63.3633 88.2585 62.1882 88.1348 60.9512C88.0358 59.7142 87.8503 58.4896 87.5781 57.2773C87.306 56.0651 86.9225 54.9147 86.4277 53.8262C85.9577 52.7129 85.3392 51.7357 84.5723 50.8945C83.8301 50.0286 82.9271 49.3483 81.8633 48.8535C80.7995 48.3587 79.5625 48.1113 78.1523 48.1113C76.7422 48.1113 75.5176 48.3711 74.4785 48.8906C73.4395 49.3854 72.5488 50.0658 71.8066 50.9316C71.0645 51.7728 70.446 52.75 69.9512 53.8633C69.4811 54.9766 69.11 56.1393 68.8379 57.3516C68.5658 58.5638 68.3678 59.7884 68.2441 61.0254C68.1452 62.2376 68.0957 63.388 68.0957 64.4766C68.0957 65.5651 68.1452 66.7279 68.2441 67.9648C68.3678 69.2018 68.5658 70.4264 68.8379 71.6387C69.11 72.8509 69.4811 74.0137 69.9512 75.127C70.446 76.2402 71.0645 77.2298 71.8066 78.0957C72.5488 78.9368 73.4395 79.6172 74.4785 80.1367C75.5176 80.6315 76.7422 80.8789 78.1523 80.8789C79.4388 80.8789 80.5768 80.6191 81.5664 80.0996C82.5807 79.5553 83.459 78.8379 84.2012 77.9473C84.9681 77.0566 85.6113 76.0423 86.1309 74.9043C86.6504 73.7663 87.071 72.5911 87.3926 71.3789C87.7142 70.1667 87.9492 68.9668 88.0977 67.7793C88.2461 66.5671 88.3203 65.4661 88.3203 64.4766ZM177.754 60.9883C177.754 63.9323 177.408 67 176.715 70.1914C176.022 73.3828 175.045 76.5 173.783 79.543C172.546 82.5612 171.049 85.4186 169.293 88.1152C167.536 90.8118 165.582 93.1497 163.43 95.1289L158.717 92.5684C159.434 91.2819 160.09 89.8346 160.684 88.2266C161.277 86.6185 161.822 84.9238 162.316 83.1426C162.811 81.3613 163.244 79.5306 163.615 77.6504C163.986 75.7702 164.296 73.9023 164.543 72.0469C164.815 70.1667 165.013 68.3483 165.137 66.5918C165.26 64.8353 165.322 63.1901 165.322 61.6562C165.322 60.7904 165.298 59.8503 165.248 58.8359C165.199 57.8216 165.087 56.8073 164.914 55.793C164.766 54.7786 164.531 53.8138 164.209 52.8984C163.887 51.9583 163.442 51.1296 162.873 50.4121C162.329 49.6699 161.636 49.0885 160.795 48.668C159.979 48.2227 158.989 48 157.826 48C156.688 48 155.711 48.3092 154.895 48.9277C154.103 49.5215 153.423 50.3008 152.854 51.2656C152.285 52.2305 151.827 53.319 151.48 54.5312C151.159 55.7435 150.911 56.9681 150.738 58.2051C150.565 59.4173 150.441 60.5801 150.367 61.6934C150.318 62.8066 150.293 63.7467 150.293 64.5137V86H137.787V66.0352C137.787 65.1693 137.799 64.1302 137.824 62.918C137.849 61.681 137.812 60.3945 137.713 59.0586C137.639 57.7227 137.478 56.3991 137.23 55.0879C137.008 53.752 136.637 52.5645 136.117 51.5254C135.622 50.4863 134.942 49.6452 134.076 49.002C133.21 48.334 132.122 48 130.811 48C129.697 48 128.757 48.3092 127.99 48.9277C127.248 49.5462 126.617 50.3503 126.098 51.3398C125.603 52.3047 125.207 53.4056 124.91 54.6426C124.638 55.8548 124.428 57.0794 124.279 58.3164C124.156 59.5286 124.081 60.6914 124.057 61.8047C124.032 62.8932 124.02 63.7962 124.02 64.5137V86H111.439V43.1387H116.264L120.865 53.1211C121.904 49.6576 123.537 46.9609 125.764 45.0312C128.015 43.0768 130.996 42.0996 134.707 42.0996C138.047 42.0996 140.818 42.7923 143.02 44.1777C145.221 45.5632 146.953 47.8145 148.215 50.9316C148.932 49.571 149.724 48.3464 150.59 47.2578C151.48 46.1693 152.458 45.2415 153.521 44.4746C154.61 43.7077 155.81 43.1263 157.121 42.7305C158.432 42.3099 159.88 42.0996 161.463 42.0996C164.382 42.0996 166.868 42.582 168.922 43.5469C171 44.487 172.695 45.7982 174.006 47.4805C175.317 49.1628 176.27 51.1667 176.863 53.4922C177.457 55.793 177.754 58.2917 177.754 60.9883ZM207.701 86H196.42L180.834 43.1387H193.377L204.807 77.2793L215.902 43.1387H224.586L207.701 86ZM243.066 32.7852C243.066 33.7253 242.881 34.6159 242.51 35.457C242.163 36.2982 241.681 37.028 241.062 37.6465C240.444 38.265 239.714 38.7598 238.873 39.1309C238.032 39.4772 237.141 39.6504 236.201 39.6504C235.261 39.6504 234.37 39.4772 233.529 39.1309C232.713 38.7598 231.995 38.265 231.377 37.6465C230.758 37.028 230.264 36.2982 229.893 35.457C229.546 34.6159 229.373 33.7253 229.373 32.7852C229.373 31.8451 229.546 30.9668 229.893 30.1504C230.264 29.3092 230.758 28.5794 231.377 27.9609C231.995 27.3424 232.713 26.86 233.529 26.5137C234.37 26.1426 235.261 25.957 236.201 25.957C237.141 25.957 238.032 26.1426 238.873 26.5137C239.714 26.86 240.444 27.3424 241.062 27.9609C241.681 28.5794 242.163 29.3092 242.51 30.1504C242.881 30.9668 243.066 31.8451 243.066 32.7852ZM242.51 86H229.93V43.1758H242.51V86ZM296.244 86H291.42L285.854 76.6855C285.309 78.2441 284.555 79.6543 283.59 80.916C282.65 82.1777 281.549 83.2663 280.287 84.1816C279.05 85.0723 277.677 85.765 276.168 86.2598C274.684 86.7546 273.113 87.002 271.455 87.002C268.189 87.002 265.27 86.4206 262.697 85.2578C260.124 84.0951 257.947 82.5117 256.166 80.5078C254.385 78.4792 253.024 76.1042 252.084 73.3828C251.144 70.6615 250.674 67.7422 250.674 64.625C250.674 61.5078 251.144 58.5885 252.084 55.8672C253.024 53.1458 254.385 50.7832 256.166 48.7793C257.947 46.7754 260.124 45.1921 262.697 44.0293C265.27 42.8665 268.189 42.2852 271.455 42.2852C273.954 42.2852 276.242 42.7676 278.32 43.7324C280.423 44.6973 282.217 46.2064 283.701 48.2598V27.3672H296.244V86ZM283.627 64.625C283.627 63.6354 283.553 62.5469 283.404 61.3594C283.256 60.1719 283.021 58.972 282.699 57.7598C282.378 56.5475 281.957 55.3724 281.438 54.2344C280.918 53.0964 280.275 52.082 279.508 51.1914C278.766 50.3008 277.887 49.5957 276.873 49.0762C275.883 48.5319 274.745 48.2598 273.459 48.2598C272.049 48.2598 270.824 48.5195 269.785 49.0391C268.746 49.5339 267.855 50.2142 267.113 51.0801C266.371 51.9212 265.753 52.8984 265.258 54.0117C264.788 55.125 264.417 56.2878 264.145 57.5C263.872 58.7122 263.674 59.9368 263.551 61.1738C263.452 62.3861 263.402 63.5365 263.402 64.625C263.402 65.7135 263.452 66.8763 263.551 68.1133C263.674 69.3255 263.872 70.5378 264.145 71.75C264.417 72.9622 264.788 74.1374 265.258 75.2754C265.753 76.3887 266.371 77.3783 267.113 78.2441C267.855 79.0853 268.746 79.7656 269.785 80.2852C270.824 80.7799 272.049 81.0273 273.459 81.0273C274.869 81.0273 276.106 80.7799 277.17 80.2852C278.234 79.7904 279.137 79.1224 279.879 78.2812C280.646 77.4154 281.264 76.4382 281.734 75.3496C282.229 74.2363 282.613 73.0736 282.885 71.8613C283.157 70.6243 283.342 69.3874 283.441 68.1504C283.565 66.9134 283.627 65.7383 283.627 64.625ZM350.535 61.4336C350.535 64.3281 350.176 67.3464 349.459 70.4883C348.766 73.6302 347.789 76.7103 346.527 79.7285C345.266 82.7467 343.757 85.5794 342 88.2266C340.243 90.8984 338.314 93.1992 336.211 95.1289L331.498 92.5684C332.166 91.3314 332.797 89.946 333.391 88.4121C333.984 86.8783 334.516 85.2578 334.986 83.5508C335.481 81.819 335.914 80.0378 336.285 78.207C336.681 76.3763 337.003 74.5703 337.25 72.7891C337.522 70.9831 337.72 69.2389 337.844 67.5566C337.992 65.8496 338.066 64.2663 338.066 62.8066C338.066 61.8418 338.029 60.8151 337.955 59.7266C337.881 58.6133 337.72 57.5124 337.473 56.4238C337.25 55.3105 336.941 54.2467 336.545 53.2324C336.149 52.2181 335.617 51.3275 334.949 50.5605C334.306 49.7936 333.514 49.1751 332.574 48.7051C331.659 48.235 330.57 48 329.309 48C328.072 48 326.971 48.2845 326.006 48.8535C325.041 49.3978 324.188 50.1276 323.445 51.043C322.703 51.9336 322.06 52.9603 321.516 54.123C320.996 55.2858 320.563 56.4857 320.217 57.7227C319.895 58.9349 319.66 60.1348 319.512 61.3223C319.363 62.5098 319.289 63.5736 319.289 64.5137V86H306.709V27.3672H319.252V49.4473C320.86 47.097 322.827 45.291 325.152 44.0293C327.503 42.7428 330.1 42.0996 332.945 42.0996C335.914 42.0996 338.499 42.582 340.701 43.5469C342.903 44.5117 344.734 45.86 346.193 47.5918C347.653 49.2988 348.742 51.3398 349.459 53.7148C350.176 56.0651 350.535 58.638 350.535 61.4336ZM401.969 86H389.426V80.8789C387.941 82.9076 386.148 84.4167 384.045 85.4062C381.967 86.3711 379.678 86.8535 377.18 86.8535C373.914 86.8535 370.995 86.2721 368.422 85.1094C365.849 83.9466 363.672 82.3633 361.891 80.3594C360.109 78.3307 358.749 75.9557 357.809 73.2344C356.868 70.513 356.398 67.5938 356.398 64.4766C356.398 61.3594 356.868 58.4401 357.809 55.7188C358.749 52.9974 360.109 50.6348 361.891 48.6309C363.672 46.6022 365.849 45.0065 368.422 43.8438C370.995 42.681 373.914 42.0996 377.18 42.0996C378.837 42.0996 380.408 42.347 381.893 42.8418C383.402 43.3366 384.775 44.0417 386.012 44.957C387.273 45.8477 388.374 46.9362 389.314 48.2227C390.279 49.4844 391.034 50.8945 391.578 52.4531L397.145 43.1387H401.969V86ZM389.352 64.4766C389.352 63.3633 389.29 62.1882 389.166 60.9512C389.067 59.7142 388.882 58.4896 388.609 57.2773C388.337 56.0651 387.954 54.9147 387.459 53.8262C386.989 52.7129 386.37 51.7357 385.604 50.8945C384.861 50.0286 383.958 49.3483 382.895 48.8535C381.831 48.3587 380.594 48.1113 379.184 48.1113C377.773 48.1113 376.549 48.3711 375.51 48.8906C374.471 49.3854 373.58 50.0658 372.838 50.9316C372.096 51.7728 371.477 52.75 370.982 53.8633C370.512 54.9766 370.141 56.1393 369.869 57.3516C369.597 58.5638 369.399 59.7884 369.275 61.0254C369.176 62.2376 369.127 63.388 369.127 64.4766C369.127 65.5651 369.176 66.7279 369.275 67.9648C369.399 69.2018 369.597 70.4264 369.869 71.6387C370.141 72.8509 370.512 74.0137 370.982 75.127C371.477 76.2402 372.096 77.2298 372.838 78.0957C373.58 78.9368 374.471 79.6172 375.51 80.1367C376.549 80.6315 377.773 80.8789 379.184 80.8789C380.47 80.8789 381.608 80.6191 382.598 80.0996C383.612 79.5553 384.49 78.8379 385.232 77.9473C385.999 77.0566 386.643 76.0423 387.162 74.9043C387.682 73.7663 388.102 72.5911 388.424 71.3789C388.745 70.1667 388.98 68.9668 389.129 67.7793C389.277 66.5671 389.352 65.4661 389.352 64.4766ZM455.629 86H443.086V80.8789C441.602 82.9076 439.808 84.4167 437.705 85.4062C435.627 86.3711 433.339 86.8535 430.84 86.8535C427.574 86.8535 424.655 86.2721 422.082 85.1094C419.509 83.9466 417.332 82.3633 415.551 80.3594C413.77 78.3307 412.409 75.9557 411.469 73.2344C410.529 70.513 410.059 67.5938 410.059 64.4766C410.059 61.3594 410.529 58.4401 411.469 55.7188C412.409 52.9974 413.77 50.6348 415.551 48.6309C417.332 46.6022 419.509 45.0065 422.082 43.8438C424.655 42.681 427.574 42.0996 430.84 42.0996C432.497 42.0996 434.068 42.347 435.553 42.8418C437.062 43.3366 438.435 44.0417 439.672 44.957C440.934 45.8477 442.035 46.9362 442.975 48.2227C443.939 49.4844 444.694 50.8945 445.238 52.4531L450.805 43.1387H455.629V86ZM443.012 64.4766C443.012 63.3633 442.95 62.1882 442.826 60.9512C442.727 59.7142 442.542 58.4896 442.27 57.2773C441.997 56.0651 441.614 54.9147 441.119 53.8262C440.649 52.7129 440.031 51.7357 439.264 50.8945C438.521 50.0286 437.618 49.3483 436.555 48.8535C435.491 48.3587 434.254 48.1113 432.844 48.1113C431.434 48.1113 430.209 48.3711 429.17 48.8906C428.131 49.3854 427.24 50.0658 426.498 50.9316C425.756 51.7728 425.137 52.75 424.643 53.8633C424.173 54.9766 423.801 56.1393 423.529 57.3516C423.257 58.5638 423.059 59.7884 422.936 61.0254C422.837 62.2376 422.787 63.388 422.787 64.4766C422.787 65.5651 422.837 66.7279 422.936 67.9648C423.059 69.2018 423.257 70.4264 423.529 71.6387C423.801 72.8509 424.173 74.0137 424.643 75.127C425.137 76.2402 425.756 77.2298 426.498 78.0957C427.24 78.9368 428.131 79.6172 429.17 80.1367C430.209 80.6315 431.434 80.8789 432.844 80.8789C434.13 80.8789 435.268 80.6191 436.258 80.0996C437.272 79.5553 438.15 78.8379 438.893 77.9473C439.66 77.0566 440.303 76.0423 440.822 74.9043C441.342 73.7663 441.762 72.5911 442.084 71.3789C442.406 70.1667 442.641 68.9668 442.789 67.7793C442.938 66.5671 443.012 65.4661 443.012 64.4766ZM509.957 61.4336C509.957 64.3281 509.598 67.3464 508.881 70.4883C508.188 73.6302 507.211 76.7103 505.949 79.7285C504.688 82.7467 503.178 85.5794 501.422 88.2266C499.665 90.8984 497.736 93.1992 495.633 95.1289L490.92 92.5684C491.588 91.3314 492.219 89.946 492.812 88.4121C493.406 86.8783 493.938 85.2578 494.408 83.5508C494.903 81.819 495.336 80.0378 495.707 78.207C496.103 76.3763 496.424 74.5703 496.672 72.7891C496.944 70.9831 497.142 69.2389 497.266 67.5566C497.414 65.8496 497.488 64.2663 497.488 62.8066C497.488 61.8418 497.451 60.8151 497.377 59.7266C497.303 58.6133 497.142 57.5124 496.895 56.4238C496.672 55.3105 496.363 54.2467 495.967 53.2324C495.571 52.2181 495.039 51.3275 494.371 50.5605C493.728 49.7936 492.936 49.1751 491.996 48.7051C491.081 48.235 489.992 48 488.73 48C487.493 48 486.393 48.2845 485.428 48.8535C484.463 49.3978 483.609 50.1276 482.867 51.043C482.125 51.9336 481.482 52.9603 480.938 54.123C480.418 55.2858 479.985 56.4857 479.639 57.7227C479.317 58.9349 479.082 60.1348 478.934 61.3223C478.785 62.5098 478.711 63.5736 478.711 64.5137V86H466.131V43.1387H470.955L476.707 53.1211C477.4 51.4635 478.266 49.9544 479.305 48.5938C480.344 47.2331 481.519 46.0703 482.83 45.1055C484.141 44.1406 485.589 43.3984 487.172 42.8789C488.78 42.3594 490.512 42.0996 492.367 42.0996C495.336 42.0996 497.921 42.582 500.123 43.5469C502.325 44.5117 504.156 45.86 505.615 47.5918C507.075 49.2988 508.163 51.3398 508.881 53.7148C509.598 56.0651 509.957 58.638 509.957 61.4336Z" fill="#F7E7CA"/>
<path d="M45.9033 141.961C45.9033 144.08 45.6299 145.949 45.083 147.566C44.5589 149.184 43.807 150.586 42.8271 151.771C41.8701 152.955 40.7308 153.947 39.4092 154.744C38.0876 155.542 36.6406 156.18 35.0684 156.658C33.5189 157.137 31.8669 157.479 30.1123 157.684C28.3805 157.889 26.6146 157.991 24.8145 157.991C22.4447 157.991 20.2572 157.809 18.252 157.444C16.2467 157.103 14.3555 156.556 12.5781 155.804C10.8236 155.029 9.12598 154.038 7.48535 152.83C5.86751 151.622 4.24967 150.153 2.63184 148.421L9.60449 141.346C10.2425 142.918 11.1198 144.376 12.2363 145.721C13.3529 147.042 14.5719 148.182 15.8936 149.139C17.238 150.096 18.6279 150.848 20.0635 151.395C21.499 151.941 22.8548 152.215 24.1309 152.215C25.6348 152.215 27.0475 152.112 28.3691 151.907C29.6908 151.679 30.8415 151.315 31.8213 150.813C32.8011 150.312 33.5645 149.651 34.1113 148.831C34.681 147.988 34.9658 146.94 34.9658 145.687C34.9658 144.729 34.7493 143.909 34.3164 143.226C33.8835 142.542 33.3138 141.961 32.6074 141.482C31.9238 140.981 31.1377 140.56 30.249 140.218C29.3604 139.876 28.4489 139.591 27.5146 139.363C26.6032 139.113 25.7031 138.896 24.8145 138.714C23.9258 138.509 23.1396 138.304 22.4561 138.099C21.1117 137.711 19.7103 137.301 18.252 136.868C16.7936 136.412 15.3581 135.9 13.9453 135.33C12.5326 134.76 11.1882 134.111 9.91211 133.382C8.65885 132.63 7.55371 131.753 6.59668 130.75C5.63965 129.725 4.8763 128.551 4.30664 127.229C3.73698 125.885 3.45215 124.347 3.45215 122.615C3.45215 120.542 3.7028 118.707 4.2041 117.112C4.72819 115.494 5.45736 114.093 6.3916 112.908C7.32585 111.723 8.43099 110.732 9.70703 109.935C10.9831 109.114 12.3844 108.465 13.9111 107.986C15.4378 107.485 17.0557 107.132 18.7646 106.927C20.4964 106.699 22.2624 106.585 24.0625 106.585C26.5234 106.585 28.7565 106.813 30.7617 107.269C32.7897 107.724 34.6582 108.374 36.3672 109.217C38.0762 110.06 39.637 111.074 41.0498 112.259C42.4854 113.421 43.8298 114.72 45.083 116.155L38.1104 123.23C37.5635 121.59 36.8001 120.109 35.8203 118.787C34.8633 117.465 33.7923 116.338 32.6074 115.403C31.4225 114.446 30.1807 113.717 28.8818 113.216C27.583 112.692 26.3298 112.43 25.1221 112.43C23.5498 112.43 22.1029 112.544 20.7812 112.771C19.4596 112.977 18.3203 113.33 17.3633 113.831C16.429 114.31 15.6999 114.97 15.1758 115.813C14.6517 116.634 14.3896 117.659 14.3896 118.89C14.3896 119.869 14.5833 120.701 14.9707 121.385C15.3581 122.068 15.8708 122.649 16.5088 123.128C17.1696 123.606 17.9102 124.005 18.7305 124.324C19.5508 124.62 20.3939 124.882 21.2598 125.11C22.1484 125.338 23.0143 125.543 23.8574 125.726C24.7233 125.885 25.5094 126.067 26.2158 126.272C27.583 126.66 29.0186 127.07 30.5225 127.503C32.0264 127.936 33.5075 128.449 34.9658 129.041C36.4242 129.611 37.8141 130.271 39.1357 131.023C40.4574 131.775 41.6195 132.675 42.6221 133.724C43.6247 134.749 44.4222 135.945 45.0146 137.312C45.6071 138.657 45.9033 140.206 45.9033 141.961ZM92.9688 157H81.416V152.283C80.0488 154.152 78.3968 155.542 76.46 156.453C74.5459 157.342 72.4382 157.786 70.1367 157.786C67.1289 157.786 64.4401 157.251 62.0703 156.18C59.7005 155.109 57.6953 153.65 56.0547 151.805C54.4141 149.936 53.1608 147.749 52.2949 145.242C51.429 142.736 50.9961 140.047 50.9961 137.176C50.9961 134.305 51.429 131.616 52.2949 129.109C53.1608 126.603 54.4141 124.427 56.0547 122.581C57.6953 120.713 59.7005 119.243 62.0703 118.172C64.4401 117.101 67.1289 116.565 70.1367 116.565C71.6634 116.565 73.1104 116.793 74.4775 117.249C75.8675 117.705 77.1322 118.354 78.2715 119.197C79.4336 120.018 80.4476 121.02 81.3135 122.205C82.2021 123.367 82.8971 124.666 83.3984 126.102L88.5254 117.522H92.9688V157ZM81.3477 137.176C81.3477 136.15 81.2907 135.068 81.1768 133.929C81.0856 132.789 80.9147 131.661 80.6641 130.545C80.4134 129.428 80.0602 128.369 79.6045 127.366C79.1715 126.341 78.6019 125.441 77.8955 124.666C77.2119 123.868 76.3802 123.242 75.4004 122.786C74.4206 122.33 73.2812 122.103 71.9824 122.103C70.6836 122.103 69.5557 122.342 68.5986 122.82C67.6416 123.276 66.8213 123.903 66.1377 124.7C65.4541 125.475 64.8844 126.375 64.4287 127.4C63.9958 128.426 63.654 129.497 63.4033 130.613C63.1527 131.73 62.9704 132.858 62.8564 133.997C62.7653 135.114 62.7197 136.173 62.7197 137.176C62.7197 138.178 62.7653 139.249 62.8564 140.389C62.9704 141.528 63.1527 142.656 63.4033 143.772C63.654 144.889 63.9958 145.96 64.4287 146.985C64.8844 148.011 65.4541 148.922 66.1377 149.72C66.8213 150.494 67.6416 151.121 68.5986 151.6C69.5557 152.055 70.6836 152.283 71.9824 152.283C73.1673 152.283 74.2155 152.044 75.127 151.565C76.0612 151.064 76.8701 150.403 77.5537 149.583C78.2601 148.763 78.8525 147.828 79.3311 146.78C79.8096 145.732 80.1969 144.65 80.4932 143.533C80.7894 142.417 81.0059 141.312 81.1426 140.218C81.2793 139.101 81.3477 138.087 81.3477 137.176ZM163.721 133.963C163.721 136.674 163.402 139.5 162.764 142.439C162.126 145.379 161.226 148.25 160.063 151.053C158.924 153.833 157.546 156.465 155.928 158.948C154.31 161.432 152.51 163.585 150.527 165.408L146.187 163.05C146.847 161.865 147.451 160.532 147.998 159.051C148.545 157.57 149.046 156.009 149.502 154.368C149.958 152.728 150.356 151.041 150.698 149.31C151.04 147.578 151.325 145.857 151.553 144.148C151.803 142.417 151.986 140.742 152.1 139.124C152.214 137.506 152.271 135.991 152.271 134.578C152.271 133.781 152.248 132.915 152.202 131.98C152.157 131.046 152.054 130.112 151.895 129.178C151.758 128.243 151.541 127.355 151.245 126.512C150.949 125.646 150.539 124.882 150.015 124.222C149.513 123.538 148.875 123.003 148.101 122.615C147.349 122.205 146.437 122 145.366 122C144.318 122 143.418 122.285 142.666 122.854C141.937 123.401 141.31 124.119 140.786 125.008C140.262 125.896 139.84 126.899 139.521 128.016C139.225 129.132 138.997 130.26 138.838 131.399C138.678 132.516 138.564 133.587 138.496 134.612C138.451 135.638 138.428 136.504 138.428 137.21V157H126.909V138.611C126.909 137.814 126.921 136.857 126.943 135.74C126.966 134.601 126.932 133.416 126.841 132.186C126.772 130.955 126.624 129.736 126.396 128.528C126.191 127.298 125.85 126.204 125.371 125.247C124.915 124.29 124.289 123.515 123.491 122.923C122.694 122.308 121.691 122 120.483 122C119.458 122 118.592 122.285 117.886 122.854C117.202 123.424 116.621 124.165 116.143 125.076C115.687 125.965 115.322 126.979 115.049 128.118C114.798 129.235 114.604 130.363 114.468 131.502C114.354 132.618 114.285 133.689 114.263 134.715C114.24 135.717 114.229 136.549 114.229 137.21V157H102.642V117.522H107.085L111.323 126.717C112.28 123.527 113.784 121.043 115.835 119.266C117.909 117.465 120.654 116.565 124.072 116.565C127.148 116.565 129.701 117.203 131.729 118.479C133.757 119.756 135.352 121.829 136.514 124.7C137.174 123.447 137.904 122.319 138.701 121.316C139.521 120.314 140.422 119.459 141.401 118.753C142.404 118.047 143.509 117.511 144.717 117.146C145.924 116.759 147.257 116.565 148.716 116.565C151.405 116.565 153.695 117.01 155.586 117.898C157.5 118.764 159.061 119.972 160.269 121.521C161.476 123.071 162.354 124.917 162.9 127.059C163.447 129.178 163.721 131.479 163.721 133.963ZM191.304 157H180.913L166.558 117.522H178.11L188.638 148.968L198.857 117.522H206.855L191.304 157ZM223.877 107.986C223.877 108.852 223.706 109.673 223.364 110.447C223.045 111.222 222.601 111.894 222.031 112.464C221.462 113.034 220.789 113.489 220.015 113.831C219.24 114.15 218.42 114.31 217.554 114.31C216.688 114.31 215.868 114.15 215.093 113.831C214.341 113.489 213.68 113.034 213.11 112.464C212.541 111.894 212.085 111.222 211.743 110.447C211.424 109.673 211.265 108.852 211.265 107.986C211.265 107.12 211.424 106.312 211.743 105.56C212.085 104.785 212.541 104.113 213.11 103.543C213.68 102.973 214.341 102.529 215.093 102.21C215.868 101.868 216.688 101.697 217.554 101.697C218.42 101.697 219.24 101.868 220.015 102.21C220.789 102.529 221.462 102.973 222.031 103.543C222.601 104.113 223.045 104.785 223.364 105.56C223.706 106.312 223.877 107.12 223.877 107.986ZM223.364 157H211.777V117.557H223.364V157ZM272.856 157H268.413L263.286 148.421C262.785 149.856 262.09 151.155 261.201 152.317C260.335 153.479 259.321 154.482 258.159 155.325C257.02 156.146 255.755 156.784 254.365 157.239C252.998 157.695 251.551 157.923 250.024 157.923C247.017 157.923 244.328 157.387 241.958 156.316C239.588 155.245 237.583 153.787 235.942 151.941C234.302 150.073 233.049 147.885 232.183 145.379C231.317 142.872 230.884 140.184 230.884 137.312C230.884 134.441 231.317 131.753 232.183 129.246C233.049 126.74 234.302 124.563 235.942 122.718C237.583 120.872 239.588 119.414 241.958 118.343C244.328 117.272 247.017 116.736 250.024 116.736C252.326 116.736 254.434 117.181 256.348 118.069C258.285 118.958 259.937 120.348 261.304 122.239V102.996H272.856V157ZM261.235 137.312C261.235 136.401 261.167 135.398 261.03 134.305C260.894 133.211 260.677 132.106 260.381 130.989C260.085 129.873 259.697 128.79 259.219 127.742C258.74 126.694 258.148 125.76 257.441 124.939C256.758 124.119 255.949 123.47 255.015 122.991C254.103 122.49 253.055 122.239 251.87 122.239C250.571 122.239 249.443 122.479 248.486 122.957C247.529 123.413 246.709 124.039 246.025 124.837C245.342 125.612 244.772 126.512 244.316 127.537C243.883 128.562 243.542 129.633 243.291 130.75C243.04 131.867 242.858 132.994 242.744 134.134C242.653 135.25 242.607 136.31 242.607 137.312C242.607 138.315 242.653 139.386 242.744 140.525C242.858 141.642 243.04 142.758 243.291 143.875C243.542 144.992 243.883 146.074 244.316 147.122C244.772 148.147 245.342 149.059 246.025 149.856C246.709 150.631 247.529 151.258 248.486 151.736C249.443 152.192 250.571 152.42 251.87 152.42C253.169 152.42 254.308 152.192 255.288 151.736C256.268 151.281 257.1 150.665 257.783 149.891C258.49 149.093 259.059 148.193 259.492 147.19C259.948 146.165 260.301 145.094 260.552 143.978C260.802 142.838 260.973 141.699 261.064 140.56C261.178 139.42 261.235 138.338 261.235 137.312ZM322.861 134.373C322.861 137.039 322.531 139.819 321.87 142.713C321.232 145.607 320.332 148.444 319.17 151.224C318.008 154.004 316.618 156.613 315 159.051C313.382 161.512 311.605 163.631 309.668 165.408L305.327 163.05C305.942 161.91 306.523 160.634 307.07 159.222C307.617 157.809 308.107 156.316 308.54 154.744C308.996 153.149 309.395 151.508 309.736 149.822C310.101 148.136 310.397 146.473 310.625 144.832C310.876 143.169 311.058 141.562 311.172 140.013C311.309 138.44 311.377 136.982 311.377 135.638C311.377 134.749 311.343 133.803 311.274 132.801C311.206 131.775 311.058 130.761 310.83 129.759C310.625 128.733 310.34 127.754 309.976 126.819C309.611 125.885 309.121 125.065 308.506 124.358C307.913 123.652 307.184 123.082 306.318 122.649C305.475 122.216 304.473 122 303.311 122C302.171 122 301.157 122.262 300.269 122.786C299.38 123.287 298.594 123.96 297.91 124.803C297.227 125.623 296.634 126.569 296.133 127.64C295.654 128.711 295.256 129.816 294.937 130.955C294.64 132.072 294.424 133.177 294.287 134.271C294.15 135.364 294.082 136.344 294.082 137.21V157H282.495V102.996H294.048V123.333C295.529 121.168 297.34 119.505 299.482 118.343C301.647 117.158 304.04 116.565 306.66 116.565C309.395 116.565 311.776 117.01 313.804 117.898C315.832 118.787 317.518 120.029 318.862 121.624C320.207 123.196 321.209 125.076 321.87 127.264C322.531 129.428 322.861 131.798 322.861 134.373ZM370.234 157H358.682V152.283C357.314 154.152 355.662 155.542 353.726 156.453C351.812 157.342 349.704 157.786 347.402 157.786C344.395 157.786 341.706 157.251 339.336 156.18C336.966 155.109 334.961 153.65 333.32 151.805C331.68 149.936 330.426 147.749 329.561 145.242C328.695 142.736 328.262 140.047 328.262 137.176C328.262 134.305 328.695 131.616 329.561 129.109C330.426 126.603 331.68 124.427 333.32 122.581C334.961 120.713 336.966 119.243 339.336 118.172C341.706 117.101 344.395 116.565 347.402 116.565C348.929 116.565 350.376 116.793 351.743 117.249C353.133 117.705 354.398 118.354 355.537 119.197C356.699 120.018 357.713 121.02 358.579 122.205C359.468 123.367 360.163 124.666 360.664 126.102L365.791 117.522H370.234V157ZM358.613 137.176C358.613 136.15 358.556 135.068 358.442 133.929C358.351 132.789 358.18 131.661 357.93 130.545C357.679 129.428 357.326 128.369 356.87 127.366C356.437 126.341 355.868 125.441 355.161 124.666C354.478 123.868 353.646 123.242 352.666 122.786C351.686 122.33 350.547 122.103 349.248 122.103C347.949 122.103 346.821 122.342 345.864 122.82C344.907 123.276 344.087 123.903 343.403 124.7C342.72 125.475 342.15 126.375 341.694 127.4C341.261 128.426 340.92 129.497 340.669 130.613C340.418 131.73 340.236 132.858 340.122 133.997C340.031 135.114 339.985 136.173 339.985 137.176C339.985 138.178 340.031 139.249 340.122 140.389C340.236 141.528 340.418 142.656 340.669 143.772C340.92 144.889 341.261 145.96 341.694 146.985C342.15 148.011 342.72 148.922 343.403 149.72C344.087 150.494 344.907 151.121 345.864 151.6C346.821 152.055 347.949 152.283 349.248 152.283C350.433 152.283 351.481 152.044 352.393 151.565C353.327 151.064 354.136 150.403 354.819 149.583C355.526 148.763 356.118 147.828 356.597 146.78C357.075 145.732 357.463 144.65 357.759 143.533C358.055 142.417 358.271 141.312 358.408 140.218C358.545 139.101 358.613 138.087 358.613 137.176ZM420.273 134.373C420.273 137.039 419.943 139.819 419.282 142.713C418.644 145.607 417.744 148.444 416.582 151.224C415.42 154.004 414.03 156.613 412.412 159.051C410.794 161.512 409.017 163.631 407.08 165.408L402.739 163.05C403.354 161.91 403.936 160.634 404.482 159.222C405.029 157.809 405.519 156.316 405.952 154.744C406.408 153.149 406.807 151.508 407.148 149.822C407.513 148.136 407.809 146.473 408.037 144.832C408.288 143.169 408.47 141.562 408.584 140.013C408.721 138.44 408.789 136.982 408.789 135.638C408.789 134.749 408.755 133.803 408.687 132.801C408.618 131.775 408.47 130.761 408.242 129.759C408.037 128.733 407.752 127.754 407.388 126.819C407.023 125.885 406.533 125.065 405.918 124.358C405.326 123.652 404.596 123.082 403.73 122.649C402.887 122.216 401.885 122 400.723 122C399.583 122 398.569 122.262 397.681 122.786C396.792 123.287 396.006 123.96 395.322 124.803C394.639 125.623 394.046 126.569 393.545 127.64C393.066 128.711 392.668 129.816 392.349 130.955C392.052 132.072 391.836 133.177 391.699 134.271C391.562 135.364 391.494 136.344 391.494 137.21V157H379.907V117.522H384.351L389.648 126.717C390.286 125.19 391.084 123.8 392.041 122.547C392.998 121.294 394.08 120.223 395.288 119.334C396.496 118.445 397.829 117.762 399.287 117.283C400.768 116.805 402.363 116.565 404.072 116.565C406.807 116.565 409.188 117.01 411.216 117.898C413.244 118.787 414.93 120.029 416.274 121.624C417.619 123.196 418.621 125.076 419.282 127.264C419.943 129.428 420.273 131.798 420.273 134.373Z" fill="#977272"/>
</svg>
